#!OML:ASF X:\für Bonn\!DataBase\2005_08_11_Bastian_Final\c3d\Bastian.ASF
:FULLY-SPECIFIED
:DEGREES
31
root 1.83827 14.4104 0.699728 171.228 -5.47754 -173.431
lowerback 20.5466 -2.57345 4.40561
upperback 3.49873 -2.95081 2.18177
thorax -7.74995 -1.80464 0.689887
lowerneck -12.2046 -7.63101 -6.65202
upperneck -2.68724 -9.00908 9.57603
head 1.90664 -3.98565 3.45775
rclavicle 1.01349e-014 1.03865e-014
rhumerus 74.6098 11.2715 -8.83027
rradius 40.9343
rwrist -50.0176
rhand -39.4356 -2.96635
rfingers 7.12502
rthumb -12.4236 -32.5771
lclavicle 1.01349e-014 1.03865e-014
lhumerus 59.5827 -11.9265 7.05074
lradius 35.9868
lwrist -0.500588
lhand -41.0395 6.45799
lfingers 7.12502
lthumb -13.9697 35.9686
rfemur -32.0535 -9.30674 30.1031
rtibia 81.9541
rfoot -35.9869 -8.96306
rtoes 0.18654
lfemur -32.7487 4.85103 -11.4555
ltibia 84.3662
lfoot -34.822 -9.42375
ltoes -8.94129
32
root 1.83455 14.208 0.713561 171.474 -5.45425 -173.33
lowerback 20.8028 -2.57599 4.51111
upperback 3.44252 -2.91162 2.22144
thorax -7.94967 -1.79059 0.679384
lowerneck -12.3723 -7.63407 -6.57429
upperneck -2.77936 -8.99249 9.51321
head 1.89672 -3.96982 3.425
rclavicle 4.56584e-016 1.04362e-015
rhumerus 74.6092 10.6279 -8.96374
rradius 41.1277
rwrist -50.0752
rhand -39.3314 -2.846
rfingers 7.12502
rthumb -12.3232 -32.4628
lclavicle 4.56584e-016 1.04362e-015
lhumerus 59.4311 -11.1569 7.44493
lradius 36.3858
lwrist -0.458484
lhand -41.151 6.14014
lfingers 7.12502
lthumb -14.0771 35.6434
rfemur -33.6691 -9.17067 30.4134
rtibia 84.3118
rfoot -36.7419 -9.52232
rtoes 0.0216513
lfemur -34.4542 5.23434 -11.3318
ltibia 86.9244
lfoot -35.5303 -9.6841
ltoes -8.82535
33
root 1.83093 13.9999 0.7268 171.676 -5.41531 -173.208
lowerback 21.1067 -2.58051 4.63074
upperback 3.39968 -2.87248 2.25368
thorax -8.16111 -1.77857 0.654849
lowerneck -12.3781 -7.63123 -6.51456
upperneck -3.09981 -8.97131 9.22618
head 1.98638 -3.97285 3.6834
rclavicle -5.10318e-015 -1.61016e-014
rhumerus 74.6163 9.97935 -9.06291
rradius 41.339
rwrist -50.2084
rhand -39.3459 -2.67768
rfingers 7.12502
rthumb -12.3371 -32.2937
lclavicle -5.10318e-015 -1.61016e-014
lhumerus 59.2854 -10.4041 7.7384
lradius 36.797
lwrist -0.375638
lhand -41.35 5.80992
lfingers 7.12502
lthumb -14.2689 35.2997
rfemur -35.2408 -9.03085 30.7494
rtibia 86.6732
rfoot -37.4757 -10.0601
rtoes -0.115403
lfemur -36.129 5.6655 -11.1755
ltibia 89.4895
lfoot -36.2335 -9.98279
ltoes -8.76441
34
root 1.82702 13.7879 0.738923 171.879 -5.35065 -173.088
lowerback 21.424 -2.5604 4.73281
upperback 3.34655 -2.80084 2.30189
thorax -8.38857 -1.75062 0.649322
lowerneck -12.5234 -7.64614 -6.40866
upperneck -3.21489 -8.97323 9.1689
head 1.96345 -3.9662 3.64037
rclavicle 2.05804e-014 -9.7156e-015
rhumerus 74.5951 9.34334 -9.00619
rradius 41.599
rwrist -50.4443
rhand -39.4334 -2.4336
rfingers 7.12502
rthumb -12.4215 -32.0445
lclavicle 2.05804e-014 -9.7156e-015
lhumerus 59.1786 -9.732 7.82184
lradius 37.283
lwrist -0.112917
lhand -41.6831 5.66652
lfingers 7.12502
lthumb -14.5898 35.1334
rfemur -36.8062 -8.84666 31.1016
rtibia 89.0437
rfoot -38.2185 -10.6959
rtoes -0.390731
lfemur -37.7982 6.16169 -11.0182
ltibia 92.0506
lfoot -36.9347 -10.2935
ltoes -8.66933
35
root 1.8234 13.5725 0.751643 172.055 -5.29896 -172.986
lowerback 21.7872 -2.54954 4.82178
upperback 3.29739 -2.74282 2.32905
thorax -8.63711 -1.72957 0.634019
lowerneck -12.6597 -7.64025 -6.24256
upperneck -3.35598 -8.95157 9.10082
head 1.92386 -3.94803 3.58469
rclavicle 1.04735e-014 1.87355e-014
rhumerus 74.5811 8.70467 -8.87148
rradius 41.8688
rwrist -50.7049
rhand -39.5906 -2.15355
rfingers 7.12502
rthumb -12.5731 -31.7552
lclavicle 1.04735e-014 1.87355e-014
lhumerus 59.0842 -9.09219 7.76811
lradius 37.811
lwrist 0.203236
lhand -42.0787 5.62232
lfingers 7.12502
lthumb -14.971 35.0612
rfemur -38.3547 -8.68771 31.4414
rtibia 91.4265
rfoot -38.9277 -11.3533
rtoes -0.684369
lfemur -39.4399 6.65147 -10.8733
ltibia 94.6019
lfoot -37.5631 -10.693
ltoes -8.41204
36
root 1.81929 13.3477 0.763608 172.204 -5.22901 -172.904
lowerback 22.1512 -2.53372 4.87661
upperback 3.27401 -2.69035 2.36763
thorax -8.85547 -1.71167 0.650859
lowerneck -12.8611 -7.63377 -6.11284
upperneck -3.4781 -8.92101 9.02193
head 1.90313 -3.92316 3.53113
rclavicle 9.0944e-015 3.17559e-014
rhumerus 74.5784 8.04049 -8.58453
rradius 42.239
rwrist -51.0266
rhand -39.8424 -1.95786
rfingers 7.12502
rthumb -12.8159 -31.5445
lclavicle 9.0944e-015 3.17559e-014
lhumerus 58.9415 -8.41805 7.8042
lradius 38.33
lwrist 0.389391
lhand -42.51 5.62794
lfingers 7.12502
lthumb -15.3864 35.0354
rfemur -39.8944 -8.5281 31.771
rtibia 93.8443
rfoot -39.6396 -12.0514
rtoes -1.09978
lfemur -41.0716 7.21723 -10.7514
ltibia 97.1757
lfoot -38.1638 -11.1184
ltoes -8.10224
37
root 1.81605 13.1117 0.775172 172.289 -5.1535 -172.819
lowerback 22.5406 -2.51871 4.94987
upperback 3.27576 -2.63901 2.38665
thorax -9.06075 -1.69657 0.636199
lowerneck -13.0512 -7.63473 -5.9778
upperneck -3.59867 -8.90259 8.98122
head 1.88412 -3.90339 3.48936
rclavicle -7.15004e-015 -4.07509e-015
rhumerus 74.5695 7.42095 -8.6503
rradius 42.476
rwrist -51.0133
rhand -40.0066 -1.7628
rfingers 7.12502
rthumb -12.9742 -31.3394
lclavicle -7.15004e-015 -4.07509e-015
lhumerus 58.8162 -7.73897 7.87522
lradius 38.8648
lwrist 0.535828
lhand -42.9485 5.61541
lfingers 7.12502
lthumb -15.8088 34.9899
rfemur -41.3944 -8.35807 32.1075
rtibia 96.2995
rfoot -40.3669 -12.7603
rtoes -1.54891
lfemur -42.6594 7.82313 -10.5951
ltibia 99.7713
lfoot -38.7263 -11.6732
ltoes -7.63208
38
root 1.81382 12.8764 0.78703 172.358 -5.06863 -172.733
lowerback 22.9796 -2.48953 4.99844
upperback 3.26929 -2.57009 2.42511
thorax -9.29884 -1.67304 0.654175
lowerneck -13.2299 -7.64073 -5.88875
upperneck -3.73957 -8.88339 8.96172
head 1.86027 -3.88228 3.46421
rclavicle 1.34801e-015 4.96962e-016
rhumerus 74.5434 6.84299 -9.07513
rradius 42.6303
rwrist -50.6277
rhand -40.0612 -1.5636
rfingers 7.12502
rthumb -13.0268 -31.1368
lclavicle 1.34801e-015 4.96962e-016
lhumerus 58.6697 -7.0601 8.14089
lradius 39.4292
lwrist 0.487362
lhand -43.3222 5.70435
lfingers 7.12502
lthumb -16.1686 35.05
rfemur -42.8725 -8.18206 32.4685
rtibia 98.7291
rfoot -41.0761 -13.5138
rtoes -2.06571
lfemur -44.227 8.49756 -10.4275
ltibia 102.334
lfoot -39.258 -12.2362
ltoes -7.28684
39
root 1.8111 12.6442 0.797826 172.417 -4.97677 -172.668
lowerback 23.4487 -2.46373 5.02954
upperback 3.25356 -2.50685 2.44222
thorax -9.56362 -1.65147 0.661577
lowerneck -13.3875 -7.63504 -5.7573
upperneck -3.88133 -8.85567 8.93567
head 1.82878 -3.85822 3.43015
rclavicle -2.46369e-014 8.94531e-015
rhumerus 74.5391 6.33816 -9.84635
rradius 42.6707
rwrist -49.9133
rhand -40.0089 -1.35202
rfingers 7.12502
rthumb -12.9763 -30.9285
lclavicle -2.46369e-014 8.94531e-015
lhumerus 58.4688 -6.39484 8.39189
lradius 40.0655
lwrist 0.429226
lhand -43.6619 5.74397
lfingers 7.12502
lthumb -16.4957 35.0627
rfemur -44.2903 -8.00956 32.8003
rtibia 101.11
rfoot -41.762 -14.2336
rtoes -2.45606
lfemur -45.722 9.21119 -10.2788
ltibia 104.826
lfoot -39.7465 -12.8475
ltoes -6.8035
40
root 1.80855 12.4127 0.808094 172.459 -4.85912 -172.606
lowerback 23.9318 -2.41638 5.04047
upperback 3.25311 -2.42241 2.47558
thorax -9.81609 -1.62049 0.691281
lowerneck -13.5599 -7.64416 -5.70499
upperneck -4.04649 -8.83248 8.97277
head 1.80124 -3.83229 3.43237
rclavicle 5.18083e-015 -2.17669e-014
rhumerus 74.5408 5.82405 -10.7184
rradius 42.6952
rwrist -49.1299
rhand -39.9036 -1.10656
rfingers 7.12502
rthumb -12.8748 -30.6894
lclavicle 5.18083e-015 -2.17669e-014
lhumerus 58.2645 -5.71559 8.7357
lradius 40.7102
lwrist 0.36908
lhand -43.9293 5.76872
lfingers 7.12502
lthumb -16.7531 35.0659
rfemur -45.6782 -7.81451 33.1442
rtibia 103.456
rfoot -42.4208 -14.9843
rtoes -3.03133
lfemur -47.1706 10.0149 -10.1211
ltibia 107.264
lfoot -40.2083 -13.4896
ltoes -6.3441
41
root 1.80544 12.1802 0.818736 172.52 -4.7434 -172.544
lowerback 24.4546 -2.37444 5.0366
upperback 3.23311 -2.34291 2.51281
thorax -10.1108 -1.59101 0.737426
lowerneck -13.6974 -7.63779 -5.58819
upperneck -4.23506 -8.7967 8.95486
head 1.75118 -3.80348 3.40555
rclavicle 1.48716e-014 -2.43511e-015
rhumerus 74.5729 5.32579 -11.4895
rradius 42.7741
rwrist -48.4921
rhand -39.8581 -0.86711
rfingers 7.12502
rthumb -12.831 -30.4528
lclavicle 1.48716e-014 -2.43511e-015
lhumerus 58.0205 -5.0687 9.02263
lradius 41.3851
lwrist 0.34488
lhand -44.1977 5.81443
lfingers 7.12502
lthumb -17.0115 35.0895
rfemur -47.0984 -7.6277 33.5013
rtibia 105.777
rfoot -43.0502 -15.6949
rtoes -3.62088
lfemur -48.6449 10.8987 -9.97021
ltibia 109.667
lfoot -40.6429 -14.1284
ltoes -5.94176
42
root 1.8029 11.9488 0.828427 172.539 -4.63217 -172.48
lowerback 25.0314 -2.33618 5.04592
upperback 3.22388 -2.26584 2.53245
thorax -10.4229 -1.56468 0.758919
lowerneck -13.8171 -7.63587 -5.47169
upperneck -4.43375 -8.7666 8.97523
head 1.69758 -3.77654 3.39223
rclavicle 3.77691e-014 -1.15295e-014
rhumerus 74.6348 4.72112 -11.9036
rradius 42.9275
rwrist -48.2946
rhand -39.8877 -0.694836
rfingers 7.12502
rthumb -12.8595 -30.2787
lclavicle 3.77691e-014 -1.15295e-014
lhumerus 57.8171 -4.40591 9.17907
lradius 42.0629
lwrist 0.435847
lhand -44.3729 5.78058
lfingers 7.12502
lthumb -17.1801 35.0411
rfemur -48.4434 -7.45821 33.8595
rtibia 108.057
rfoot -43.6774 -16.3948
rtoes -4.06782
lfemur -50.043 11.8432 -9.79674
ltibia 112.023
lfoot -41.0647 -14.8309
ltoes -5.47956
